{
    "asset": {
        "generator": "Blender ggltf",
        "version": "2.0"
    },
    "scenes": [
        {
            "name": "scene",
            "nodes": [
                0,
                1,
                2
            ]
        }
    ],
    "nodes": [
        {
            "name": "Cube",
            "mesh": 0
        },
        {
            "name": "Cube_Instance",
            "translation": [
                -1.322393774986267,
                3.5346193313598633,
                -4.932394027709961
            ],
            "rotation": [
                0.36526378989219666,
                -0.23339131474494934,
                -0.18421995639801025,
                0.8821417689323425
            ],
            "mesh": 0
        },
        {
            "name": "Cube_Duplicate",
            "translation": [
                -3.3153507709503174,
                3.68601655960083,
                -0.5954418182373047
            ],
            "rotation": [
                0.03885509446263313,
                0.21596869826316833,
                -0.3678422272205353,
                0.903626024723053
            ],
            "scale": [
                1.0,
                1.0,
                0.9999999403953552
            ],
            "mesh": 1
        }
    ],
    "meshes": [
        {
            "name": "Cube",
            "primitives": [
                {
                    "mode": 4,
                    "indices": 1,
                    "attributes": {
                        "POSITION": 0,
                        "NORMAL": 2
                    }
                }
            ]
        },
        {
            "name": "Cube.001",
            "primitives": [
                {
                    "mode": 4,
                    "indices": 4,
                    "attributes": {
                        "POSITION": 3,
                        "NORMAL": 5
                    }
                }
            ]
        }
    ],
    "accessors": [
        {
            "componentType": 5126,
            "type": "VEC3",
            "count": 24,
            "min": [
                -1.0,
                -1.0,
                -1.0
            ],
            "max": [
                1.0,
                1.0,
                1.0
            ],
            "bufferView": 0
        },
        {
            "componentType": 5125,
            "type": "SCALAR",
            "count": 36,
            "bufferView": 1
        },
        {
            "componentType": 5126,
            "type": "VEC3",
            "count": 24,
            "bufferView": 2
        },
        {
            "componentType": 5126,
            "type": "VEC3",
            "count": 24,
            "min": [
                -1.0,
                -1.0,
                -1.000000238418579
            ],
            "max": [
                1.0,
                1.0000003576278687,
                1.0000001192092896
            ],
            "bufferView": 3
        },
        {
            "componentType": 5125,
            "type": "SCALAR",
            "count": 36,
            "bufferView": 4
        },
        {
            "componentType": 5126,
            "type": "VEC3",
            "count": 24,
            "bufferView": 5
        }
    ],
    "bufferViews": [
        {
            "buffer": 0,
            "byteOffset": 0,
            "byteLength": 288
        },
        {
            "buffer": 0,
            "byteOffset": 288,
            "byteLength": 144
        },
        {
            "buffer": 0,
            "byteOffset": 432,
            "byteLength": 288
        },
        {
            "buffer": 0,
            "byteOffset": 720,
            "byteLength": 288
        },
        {
            "buffer": 0,
            "byteOffset": 1008,
            "byteLength": 144
        },
        {
            "buffer": 0,
            "byteOffset": 1152,
            "byteLength": 288
        }
    ],
    "buffers": [
        {
            "byteLength": 1440,
            "uri": "instanced_mesh_check_redundancy_0.bin"
        }
    ],
    "scene": 0
}