{
    "asset": {
        "generator": "Blender ggltf",
        "version": "2.0"
    },
    "scenes": [
        {
            "name": "scene",
            "nodes": [
                0,
                1,
                2,
                3
            ]
        }
    ],
    "nodes": [
        {
            "name": "Cube",
            "mesh": 0
        },
        {
            "name": "Cube_Instance",
            "translation": [
                -1.322394,
                3.534619,
                -4.932394
            ],
            "rotation": [
                0.365264,
                -0.233391,
                -0.18422,
                0.882142
            ],
            "mesh": 0
        },
        {
            "name": "Cube_Duplicate",
            "translation": [
                -3.315351,
                3.686017,
                -0.595442
            ],
            "rotation": [
                0.038855,
                0.215969,
                -0.367842,
                0.903626
            ],
            "mesh": 1
        },
        {
            "name": "Cube_Mod",
            "translation": [
                4.039644,
                2.98333,
                -2.377363
            ],
            "mesh": 2
        }
    ],
    "meshes": [
        {
            "name": "Cube",
            "primitives": [
                {
                    "mode": 4,
                    "indices": 1,
                    "attributes": {
                        "POSITION": 0,
                        "NORMAL": 2
                    }
                }
            ]
        },
        {
            "name": "Cube.001",
            "primitives": [
                {
                    "mode": 4,
                    "indices": 4,
                    "attributes": {
                        "POSITION": 3,
                        "NORMAL": 5
                    }
                }
            ]
        },
        {
            "name": "Cube",
            "primitives": [
                {
                    "mode": 4,
                    "indices": 7,
                    "attributes": {
                        "POSITION": 6,
                        "NORMAL": 8
                    }
                }
            ]
        }
    ],
    "accessors": [
        {
            "componentType": 5126,
            "type": "VEC3",
            "count": 24,
            "min": [
                -1.0,
                -1.0,
                -1.0
            ],
            "max": [
                1.0,
                1.0,
                1.0
            ],
            "bufferView": 0
        },
        {
            "componentType": 5125,
            "type": "SCALAR",
            "count": 36,
            "bufferView": 1
        },
        {
            "componentType": 5126,
            "type": "VEC3",
            "count": 24,
            "bufferView": 2
        },
        {
            "componentType": 5126,
            "type": "VEC3",
            "count": 24,
            "min": [
                -1.0,
                -1.0,
                -1.000000238418579
            ],
            "max": [
                1.0,
                1.0000003576278687,
                1.0000001192092896
            ],
            "bufferView": 3
        },
        {
            "componentType": 5125,
            "type": "SCALAR",
            "count": 36,
            "bufferView": 4
        },
        {
            "componentType": 5126,
            "type": "VEC3",
            "count": 24,
            "bufferView": 5
        },
        {
            "componentType": 5126,
            "type": "VEC3",
            "count": 96,
            "min": [
                -0.8395061492919922,
                -0.8395063877105713,
                -0.8395063877105713
            ],
            "max": [
                0.8395061492919922,
                0.8395063877105713,
                0.8395062685012817
            ],
            "bufferView": 6
        },
        {
            "componentType": 5125,
            "type": "SCALAR",
            "count": 144,
            "bufferView": 7
        },
        {
            "componentType": 5126,
            "type": "VEC3",
            "count": 96,
            "bufferView": 8
        }
    ],
    "bufferViews": [
        {
            "buffer": 0,
            "byteOffset": 0,
            "byteLength": 288
        },
        {
            "buffer": 0,
            "byteOffset": 288,
            "byteLength": 144
        },
        {
            "buffer": 0,
            "byteOffset": 432,
            "byteLength": 288
        },
        {
            "buffer": 0,
            "byteOffset": 720,
            "byteLength": 288
        },
        {
            "buffer": 0,
            "byteOffset": 1008,
            "byteLength": 144
        },
        {
            "buffer": 0,
            "byteOffset": 1152,
            "byteLength": 288
        },
        {
            "buffer": 0,
            "byteOffset": 1440,
            "byteLength": 1152
        },
        {
            "buffer": 0,
            "byteOffset": 2592,
            "byteLength": 576
        },
        {
            "buffer": 0,
            "byteOffset": 3168,
            "byteLength": 1152
        }
    ],
    "buffers": [
        {
            "byteLength": 4320,
            "uri": "data:application/octet-stream;base64,"
        }
    ],
    "scene": 0
}