{
    "asset": {
        "generator": "Blender ggltf",
        "version": "2.0"
    },
    "scenes": [
        {
            "name": "scene",
            "nodes": [
                6,
                7,
                8,
                9,
                10,
                11
            ]
        }
    ],
    "nodes": [
        {
            "name": "Arm-02.L",
            "translation": [
                6.705522537231445e-08,
                2.000000238418579,
                -3.725290298461914e-08
            ],
            "rotation": [
                -0.10576904565095901,
                -0.00813854206353426,
                0.030418304726481438,
                0.9938920736312866
            ],
            "scale": [
                1.0,
                1.0,
                1.0
            ]
        },
        {
            "name": "Arm-01.L",
            "translation": [
                0.0,
                3.000000238418579,
                -0.9999999403953552
            ],
            "rotation": [
                -0.8156565427780151,
                0.02520560473203659,
                0.043620239943265915,
                0.5763387680053711
            ],
            "scale": [
                0.9999999403953552,
                0.9999999403953552,
                0.9999998807907104
            ],
            "children": [
                0
            ]
        },
        {
            "name": "Arm-02.R",
            "translation": [
                1.0058283805847168e-07,
                1.9999995231628418,
                -4.470348358154297e-08
            ],
            "rotation": [
                0.04727965593338013,
                0.012650001794099808,
                -0.16439849138259888,
                0.98517906665802
            ],
            "scale": [
                1.0,
                0.9999999403953552,
                0.9999999403953552
            ]
        },
        {
            "name": "Arm-01.R",
            "translation": [
                -6.05359673500061e-09,
                3.000000476837158,
                0.9999999403953552
            ],
            "rotation": [
                0.3945861756801605,
                0.6423403024673462,
                0.3461266756057739,
                0.558477520942688
            ],
            "scale": [
                1.0,
                0.9999999403953552,
                0.9999999403953552
            ],
            "children": [
                2
            ]
        },
        {
            "name": "Spine-03",
            "translation": [
                -1.3969838619232178e-09,
                2.000000238418579,
                -2.0168954506516457e-08
            ],
            "rotation": [
                -0.06715082377195358,
                0.019312025979161263,
                0.005167014431208372,
                0.9975425601005554
            ],
            "scale": [
                1.0,
                1.0,
                1.0
            ],
            "children": [
                1,
                3
            ]
        },
        {
            "name": "Spine-02",
            "translation": [
                0.0,
                2.0,
                0.0
            ],
            "rotation": [
                -0.048155203461647034,
                0.013849039562046528,
                0.0037053695414215326,
                0.9987369775772095
            ],
            "scale": [
                1.0,
                1.0,
                1.0
            ],
            "children": [
                4
            ]
        },
        {
            "name": "Spine-01",
            "translation": [
                0.0,
                0.0,
                0.0
            ],
            "rotation": [
                0.0,
                0.7071068286895752,
                0.0,
                0.7071068286895752
            ],
            "scale": [
                1.0,
                0.9999999403953552,
                1.0
            ],
            "children": [
                5
            ]
        },
        {
            "name": "Top.L",
            "translation": [
                -2.656597375869751,
                2.451892375946045,
                0.09441535174846649
            ],
            "rotation": [
                0.0,
                0.0,
                0.0,
                1.0
            ],
            "scale": [
                1.0,
                1.0,
                1.0
            ]
        },
        {
            "name": "Top.R",
            "translation": [
                1.8001124858856201,
                4.650766849517822,
                -0.06261889636516571
            ],
            "rotation": [
                0.0041045560501515865,
                0.021706748753786087,
                0.14694195985794067,
                0.9888983964920044
            ],
            "scale": [
                0.9999999403953552,
                0.9999999403953552,
                0.9999999403953552
            ]
        },
        {
            "name": "Bottom.L",
            "translation": [
                -4.187908172607422,
                -0.4420924186706543,
                0.18886253237724304
            ],
            "rotation": [
                -0.05331019312143326,
                0.010192967019975185,
                0.3610175848007202,
                0.9309782385826111
            ],
            "scale": [
                0.9999999403953552,
                1.0,
                1.0
            ]
        },
        {
            "name": "Bottom.R",
            "translation": [
                5.327012062072754,
                1.1466805934906006,
                -0.18326695263385773
            ],
            "rotation": [
                -0.014132385142147541,
                0.025536486878991127,
                -0.14413224160671234,
                0.9891279339790344
            ],
            "scale": [
                1.0,
                0.9999999403953552,
                1.0
            ]
        },
        {
            "name": "MeshObj",
            "translation": [
                0.0,
                0.0,
                -0.0
            ],
            "rotation": [
                0.0,
                0.0,
                -0.0,
                1.0
            ],
            "scale": [
                1.0,
                1.0,
                1.0
            ],
            "skin": 0,
            "mesh": 0
        }
    ],
    "meshes": [
        {
            "name": "Cube",
            "primitives": [
                {
                    "mode": 4,
                    "indices": 2,
                    "attributes": {
                        "POSITION": 1,
                        "NORMAL": 3,
                        "JOINTS_0": 4,
                        "WEIGHTS_0": 5
                    }
                }
            ]
        }
    ],
    "skins": [
        {
            "name": "Armature_Main",
            "joints": [
                0,
                1,
                2,
                3,
                4,
                5,
                6,
                7,
                8,
                9,
                10
            ],
            "inverseBindMatrices": 0
        }
    ],
    "accessors": [
        {
            "componentType": 5126,
            "type": "MAT4",
            "count": 11,
            "bufferView": 0
        },
        {
            "componentType": 5126,
            "type": "VEC3",
            "count": 184,
            "min": [
                -5.0,
                0.0,
                -1.000000238418579
            ],
            "max": [
                5.0,
                8.0,
                1.000000238418579
            ],
            "bufferView": 1
        },
        {
            "componentType": 5125,
            "type": "SCALAR",
            "count": 276,
            "bufferView": 2
        },
        {
            "componentType": 5126,
            "type": "VEC3",
            "count": 184,
            "bufferView": 3
        },
        {
            "componentType": 5123,
            "type": "VEC4",
            "count": 184,
            "bufferView": 4
        },
        {
            "componentType": 5126,
            "type": "VEC4",
            "count": 184,
            "bufferView": 5
        }
    ],
    "bufferViews": [
        {
            "buffer": 0,
            "byteOffset": 0,
            "byteLength": 704
        },
        {
            "buffer": 0,
            "byteOffset": 704,
            "byteLength": 2208
        },
        {
            "buffer": 0,
            "byteOffset": 2912,
            "byteLength": 1104
        },
        {
            "buffer": 0,
            "byteOffset": 4016,
            "byteLength": 2208
        },
        {
            "buffer": 0,
            "byteOffset": 6224,
            "byteLength": 1472
        },
        {
            "buffer": 0,
            "byteOffset": 7696,
            "byteLength": 2944
        }
    ],
    "buffers": [
        {
            "byteLength": 10640,
            "uri": "data:application/octet-stream;base64,"
        }
    ],
    "scene": 0
}