{
    "asset": {
        "generator": "Blender ggltf",
        "version": "2.0"
    },
    "scenes": [
        {
            "name": "scene",
            "nodes": [
                6,
                7,
                8,
                9,
                10,
                11
            ]
        }
    ],
    "nodes": [
        {
            "name": "Arm-02.L",
            "translation": [
                0.0,
                -0.0,
                -2.0
            ],
            "rotation": [
                -0.105769,
                0.030418,
                0.008139,
                0.993892
            ]
        },
        {
            "name": "Arm-01.L",
            "translation": [
                0.0,
                -1.0,
                -3.0
            ],
            "rotation": [
                -0.815657,
                0.04362,
                -0.025206,
                0.576339
            ],
            "children": [
                0
            ]
        },
        {
            "name": "Arm-02.R",
            "translation": [
                0.0,
                -0.0,
                -2.0
            ],
            "rotation": [
                0.04728,
                -0.164398,
                -0.01265,
                0.985179
            ]
        },
        {
            "name": "Arm-01.R",
            "translation": [
                -0.0,
                1.0,
                -3.0
            ],
            "rotation": [
                0.394586,
                0.346127,
                -0.64234,
                0.558478
            ],
            "children": [
                2
            ]
        },
        {
            "name": "Spine-03",
            "translation": [
                -0.0,
                -0.0,
                -2.0
            ],
            "rotation": [
                -0.067151,
                0.005167,
                -0.019312,
                0.997543
            ],
            "children": [
                1,
                3
            ]
        },
        {
            "name": "Spine-02",
            "translation": [
                0.0,
                0.0,
                -2.0
            ],
            "rotation": [
                -0.048155,
                0.003705,
                -0.013849,
                0.998737
            ],
            "children": [
                4
            ]
        },
        {
            "name": "Spine-01",
            "rotation": [
                0.5,
                0.5,
                -0.5,
                0.5
            ],
            "children": [
                5
            ]
        },
        {
            "name": "Top.L",
            "translation": [
                -2.656597,
                2.451892,
                0.094415
            ],
            "rotation": [
                0.707107,
                0.0,
                -0.0,
                0.707107
            ]
        },
        {
            "name": "Top.R",
            "translation": [
                1.800112,
                4.650767,
                -0.062619
            ],
            "rotation": [
                0.702159,
                0.119253,
                0.088555,
                0.696354
            ]
        },
        {
            "name": "Bottom.L",
            "translation": [
                -4.187908,
                -0.442092,
                0.188863
            ],
            "rotation": [
                0.620605,
                0.262486,
                0.24807,
                0.695997
            ]
        },
        {
            "name": "Bottom.R",
            "translation": [
                5.327012,
                1.146681,
                -0.183267
            ],
            "rotation": [
                0.689426,
                -0.08386,
                -0.119974,
                0.709412
            ]
        },
        {
            "name": "MeshObj",
            "skin": 0,
            "mesh": 0
        }
    ],
    "meshes": [
        {
            "name": "Cube",
            "primitives": [
                {
                    "mode": 4,
                    "indices": 2,
                    "attributes": {
                        "POSITION": 1,
                        "NORMAL": 3,
                        "JOINTS_0": 4,
                        "WEIGHTS_0": 5
                    }
                }
            ]
        }
    ],
    "skins": [
        {
            "name": "Armature_Main",
            "joints": [
                0,
                1,
                2,
                3,
                4,
                5,
                6,
                7,
                8,
                9,
                10
            ],
            "inverseBindMatrices": 0
        }
    ],
    "accessors": [
        {
            "componentType": 5126,
            "type": "MAT4",
            "count": 11,
            "bufferView": 0
        },
        {
            "componentType": 5126,
            "type": "VEC3",
            "count": 184,
            "min": [
                -5.0,
                0.0,
                -1.000000238418579
            ],
            "max": [
                5.0,
                8.0,
                1.000000238418579
            ],
            "bufferView": 1
        },
        {
            "componentType": 5125,
            "type": "SCALAR",
            "count": 276,
            "bufferView": 2
        },
        {
            "componentType": 5126,
            "type": "VEC3",
            "count": 184,
            "bufferView": 3
        },
        {
            "componentType": 5123,
            "type": "VEC4",
            "count": 184,
            "bufferView": 4
        },
        {
            "componentType": 5126,
            "type": "VEC4",
            "count": 184,
            "bufferView": 5
        }
    ],
    "bufferViews": [
        {
            "buffer": 0,
            "byteOffset": 0,
            "byteLength": 704
        },
        {
            "buffer": 0,
            "byteOffset": 704,
            "byteLength": 2208
        },
        {
            "buffer": 0,
            "byteOffset": 2912,
            "byteLength": 1104
        },
        {
            "buffer": 0,
            "byteOffset": 4016,
            "byteLength": 2208
        },
        {
            "buffer": 0,
            "byteOffset": 6224,
            "byteLength": 1472
        },
        {
            "buffer": 0,
            "byteOffset": 7696,
            "byteLength": 2944
        }
    ],
    "buffers": [
        {
            "byteLength": 10640,
            "uri": "multi_armature_mesh_export_in_pose_0.bin"
        }
    ],
    "scene": 0
}