{
    "asset": {
        "generator": "Blender ggltf",
        "version": "2.0"
    },
    "scenes": [
        {
            "name": "scene",
            "nodes": [
                5
            ]
        }
    ],
    "nodes": [
        {
            "name": "Body",
            "translation": [
                -0.0,
                1.063203,
                -0.028914
            ],
            "mesh": 0
        },
        {
            "name": "Landing_Gear",
            "translation": [
                0.608656,
                0.457902,
                -0.035774
            ],
            "mesh": 1
        },
        {
            "name": "Rear_Rotor",
            "translation": [
                -0.208891,
                1.466037,
                -1.74736
            ],
            "rotation": [
                0.200484,
                -0.0,
                -0.0,
                0.979697
            ],
            "mesh": 2
        },
        {
            "name": "Rotor",
            "translation": [
                -0.0,
                1.979867,
                0.064718
            ],
            "mesh": 3
        },
        {
            "name": "Tail",
            "translation": [
                -0.0,
                0.880087,
                -0.692419
            ],
            "mesh": 4
        },
        {
            "name": "Helicopter",
            "translation": [
                -0.548172,
                2.726126,
                -1.355644
            ],
            "rotation": [
                0.097616,
                0.153072,
                -0.149063,
                0.972019
            ],
            "scale": [
                2.0,
                2.0,
                2.0
            ],
            "children": [
                0,
                1,
                2,
                3,
                4
            ]
        }
    ],
    "meshes": [
        {
            "name": "Body_Mesh",
            "primitives": [
                {
                    "mode": 4,
                    "indices": 1,
                    "attributes": {
                        "POSITION": 0,
                        "NORMAL": 2
                    }
                }
            ]
        },
        {
            "name": "Landing_Gear_Mesh",
            "primitives": [
                {
                    "mode": 4,
                    "indices": 4,
                    "attributes": {
                        "POSITION": 3,
                        "NORMAL": 5
                    }
                }
            ]
        },
        {
            "name": "Rear_Rotor_Mesh",
            "primitives": [
                {
                    "mode": 4,
                    "indices": 7,
                    "attributes": {
                        "POSITION": 6,
                        "NORMAL": 8
                    }
                }
            ]
        },
        {
            "name": "Rotor_Mesh",
            "primitives": [
                {
                    "mode": 4,
                    "indices": 10,
                    "attributes": {
                        "POSITION": 9,
                        "NORMAL": 11
                    }
                }
            ]
        },
        {
            "name": "Tail_Mesh",
            "primitives": [
                {
                    "mode": 4,
                    "indices": 13,
                    "attributes": {
                        "POSITION": 12,
                        "NORMAL": 14
                    }
                }
            ]
        }
    ],
    "accessors": [
        {
            "componentType": 5126,
            "type": "VEC3",
            "count": 96,
            "min": [
                -0.8395063877105713,
                -0.8474737405776978,
                -0.8229304552078247
            ],
            "max": [
                0.8395063281059265,
                0.7481861114501953,
                1.029489517211914
            ],
            "bufferView": 0
        },
        {
            "componentType": 5125,
            "type": "SCALAR",
            "count": 144,
            "bufferView": 1
        },
        {
            "componentType": 5126,
            "type": "VEC3",
            "count": 96,
            "bufferView": 2
        },
        {
            "componentType": 5126,
            "type": "VEC3",
            "count": 640,
            "min": [
                -1.2719472646713257,
                -0.4795677661895752,
                -0.8484216928482056
            ],
            "max": [
                0.05463483929634094,
                0.07514023780822754,
                0.8484219312667847
            ],
            "bufferView": 3
        },
        {
            "componentType": 5125,
            "type": "SCALAR",
            "count": 888,
            "bufferView": 4
        },
        {
            "componentType": 5126,
            "type": "VEC3",
            "count": 640,
            "bufferView": 5
        },
        {
            "componentType": 5126,
            "type": "VEC3",
            "count": 576,
            "min": [
                -0.08694952726364136,
                -0.4113277196884155,
                -0.411327600479126
            ],
            "max": [
                0.08694958686828613,
                0.4113270044326782,
                0.4113271236419678
            ],
            "bufferView": 6
        },
        {
            "componentType": 5125,
            "type": "SCALAR",
            "count": 804,
            "bufferView": 7
        },
        {
            "componentType": 5126,
            "type": "VEC3",
            "count": 576,
            "bufferView": 8
        },
        {
            "componentType": 5126,
            "type": "VEC3",
            "count": 576,
            "min": [
                -1.6494293212890625,
                -0.2372879981994629,
                -1.6494289636611938
            ],
            "max": [
                1.649428367614746,
                0.08694958686828613,
                1.6494288444519043
            ],
            "bufferView": 9
        },
        {
            "componentType": 5125,
            "type": "SCALAR",
            "count": 804,
            "bufferView": 10
        },
        {
            "componentType": 5126,
            "type": "VEC3",
            "count": 576,
            "bufferView": 11
        },
        {
            "componentType": 5126,
            "type": "VEC3",
            "count": 208,
            "min": [
                -0.1712043285369873,
                -0.3130218982696533,
                -1.3265209197998047
            ],
            "max": [
                0.17120450735092163,
                0.9499397277832031,
                0.3414783477783203
            ],
            "bufferView": 12
        },
        {
            "componentType": 5125,
            "type": "SCALAR",
            "count": 312,
            "bufferView": 13
        },
        {
            "componentType": 5126,
            "type": "VEC3",
            "count": 208,
            "bufferView": 14
        }
    ],
    "bufferViews": [
        {
            "buffer": 0,
            "byteOffset": 0,
            "byteLength": 1152
        },
        {
            "buffer": 0,
            "byteOffset": 1152,
            "byteLength": 576
        },
        {
            "buffer": 0,
            "byteOffset": 1728,
            "byteLength": 1152
        },
        {
            "buffer": 0,
            "byteOffset": 2880,
            "byteLength": 7680
        },
        {
            "buffer": 0,
            "byteOffset": 10560,
            "byteLength": 3552
        },
        {
            "buffer": 0,
            "byteOffset": 14112,
            "byteLength": 7680
        },
        {
            "buffer": 0,
            "byteOffset": 21792,
            "byteLength": 6912
        },
        {
            "buffer": 0,
            "byteOffset": 28704,
            "byteLength": 3216
        },
        {
            "buffer": 0,
            "byteOffset": 31920,
            "byteLength": 6912
        },
        {
            "buffer": 0,
            "byteOffset": 38832,
            "byteLength": 6912
        },
        {
            "buffer": 0,
            "byteOffset": 45744,
            "byteLength": 3216
        },
        {
            "buffer": 0,
            "byteOffset": 48960,
            "byteLength": 6912
        },
        {
            "buffer": 0,
            "byteOffset": 55872,
            "byteLength": 2496
        },
        {
            "buffer": 0,
            "byteOffset": 58368,
            "byteLength": 1248
        },
        {
            "buffer": 0,
            "byteOffset": 59616,
            "byteLength": 2496
        }
    ],
    "buffers": [
        {
            "byteLength": 62112,
            "uri": "data:application/octet-stream;base64,"
        }
    ],
    "scene": 0
}