{
    "asset": {
        "generator": "Blender Advanced GLTF2 I/O",
        "version": "2.0"
    },
    "scenes": [
        {
            "name": "scene",
            "nodes": [
                0
            ]
        }
    ],
    "nodes": [
        {
            "name": "Cube",
            "translation": [
                0.0,
                0.0,
                -0.0
            ],
            "rotation": [
                0.0,
                0.0,
                -0.0,
                1.0
            ],
            "scale": [
                1.0,
                1.0,
                1.0
            ],
            "mesh": 0
        }
    ],
    "materials": [
        {
            "name": "default_temp_material",
            "doubleSided": false,
            "alphaMode": "OPAQUE",
            "pbrMetallicRoughness": {
                "baseColorFactor": [
                    0.8,
                    0.8,
                    0.8,
                    1.0
                ],
                "metallicFactor": 0,
                "roughnessFactor": 0.4
            }
        }
    ],
    "meshes": [
        {
            "name": "Cube",
            "primitives": [
                {
                    "mode": 4,
                    "material": 0,
                    "indices": 1,
                    "attributes": {
                        "POSITION": 0,
                        "NORMAL": 2
                    },
                    "targets": [
                        {
                            "POSITION": 3,
                            "NORMAL": 4
                        },
                        {
                            "POSITION": 5,
                            "NORMAL": 6
                        }
                    ]
                }
            ]
        }
    ],
    "accessors": [
        {
            "componentType": 5126,
            "type": "VEC3",
            "count": 24,
            "min": [
                -1.0,
                -1.0,
                -1.0
            ],
            "max": [
                1.0,
                1.0,
                1.0
            ],
            "bufferView": 0
        },
        {
            "componentType": 5125,
            "type": "SCALAR",
            "count": 36,
            "bufferView": 1
        },
        {
            "componentType": 5126,
            "type": "VEC3",
            "count": 24,
            "bufferView": 2
        },
        {
            "componentType": 5126,
            "type": "VEC3",
            "count": 24,
            "min": [
                0.0,
                0.0,
                0.0
            ],
            "max": [
                0.0,
                2.0,
                0.0
            ],
            "bufferView": 3
        },
        {
            "componentType": 5126,
            "type": "VEC3",
            "count": 24,
            "bufferView": 4
        },
        {
            "componentType": 5126,
            "type": "VEC3",
            "count": 24,
            "min": [
                0.0,
                0.0,
                0.0
            ],
            "max": [
                2.0,
                0.0,
                0.0
            ],
            "bufferView": 5
        },
        {
            "componentType": 5126,
            "type": "VEC3",
            "count": 24,
            "bufferView": 6
        }
    ],
    "bufferViews": [
        {
            "buffer": 0,
            "byteOffset": 0,
            "byteLength": 288
        },
        {
            "buffer": 0,
            "byteOffset": 288,
            "byteLength": 144
        },
        {
            "buffer": 0,
            "byteOffset": 432,
            "byteLength": 288
        },
        {
            "buffer": 0,
            "byteOffset": 720,
            "byteLength": 288
        },
        {
            "buffer": 0,
            "byteOffset": 1008,
            "byteLength": 288
        },
        {
            "buffer": 0,
            "byteOffset": 1296,
            "byteLength": 288
        },
        {
            "buffer": 0,
            "byteOffset": 1584,
            "byteLength": 288
        }
    ],
    "buffers": [
        {
            "byteLength": 1872,
            "uri": "shape_key_mesh_export_0.bin"
        }
    ],
    "scene": 0
}