{
    "asset": {
        "generator": "Blender Advanced GLTF2 I/O",
        "version": "2.0"
    },
    "scenes": [
        {
            "name": "scene",
            "nodes": [
                0
            ]
        }
    ],
    "nodes": [
        {
            "name": "Plane",
            "translation": [
                0.0,
                0.0,
                -0.0
            ],
            "rotation": [
                0.0,
                0.0,
                -0.0,
                1.0
            ],
            "scale": [
                1.0,
                1.0,
                1.0
            ],
            "mesh": 0
        }
    ],
    "materials": [
        {
            "name": "default_temp_material",
            "doubleSided": false,
            "alphaMode": "OPAQUE",
            "pbrMetallicRoughness": {
                "baseColorFactor": [
                    0.8,
                    0.8,
                    0.8,
                    1.0
                ],
                "metallicFactor": 0,
                "roughnessFactor": 0.4
            }
        }
    ],
    "meshes": [
        {
            "name": "Plane",
            "primitives": [
                {
                    "mode": 4,
                    "material": 0,
                    "indices": 1,
                    "attributes": {
                        "POSITION": 0,
                        "NORMAL": 2,
                        "TEXCOORD_0": 3
                    }
                }
            ]
        }
    ],
    "accessors": [
        {
            "componentType": 5126,
            "type": "VEC3",
            "count": 16,
            "min": [
                -1.0,
                0.0,
                -1.0
            ],
            "max": [
                1.0,
                0.0,
                1.0
            ],
            "bufferView": 0
        },
        {
            "componentType": 5125,
            "type": "SCALAR",
            "count": 24,
            "bufferView": 1
        },
        {
            "componentType": 5126,
            "type": "VEC3",
            "count": 16,
            "bufferView": 2
        },
        {
            "componentType": 5126,
            "type": "VEC2",
            "count": 16,
            "bufferView": 3
        }
    ],
    "bufferViews": [
        {
            "buffer": 0,
            "byteOffset": 0,
            "byteLength": 192
        },
        {
            "buffer": 0,
            "byteOffset": 192,
            "byteLength": 96
        },
        {
            "buffer": 0,
            "byteOffset": 288,
            "byteLength": 192
        },
        {
            "buffer": 0,
            "byteOffset": 480,
            "byteLength": 128
        }
    ],
    "buffers": [
        {
            "byteLength": 608,
            "uri": "data:application/octet-stream;base64,"
        }
    ],
    "scene": 0
}